HIERARCHY
ROOT hip
{
	OFFSET 0.000000 0.000000 0.000000 
	CHANNELS 6 Xposition Yposition Zposition Xrotation Zrotation Yrotation
	JOINT abdomen
	{
		OFFSET 0.000000 3.402643 0.000000 
		CHANNELS 3 Xrotation Zrotation Yrotation
		JOINT chest
		{
			OFFSET 0.000000 8.438565 -0.680529 
			CHANNELS 3 Xrotation Zrotation Yrotation
			JOINT neck
			{
				OFFSET 0.000000 10.207942 -0.272212 
				CHANNELS 3 Xrotation Zrotation Yrotation
				JOINT head
				{
					OFFSET 0.000000 3.130431 0.000000 
					CHANNELS 3 Xrotation Zrotation Yrotation
					End Site
					{
						OFFSET 0.000000 3.130435 0.000000 
					}
				}
			}
			JOINT lCollar
			{
				OFFSET 3.470700 6.669187 -0.816635 
				CHANNELS 3 Yrotation Zrotation Xrotation
				JOINT lShldr
				{
					OFFSET 3.198488 0.000000 0.000000 
					CHANNELS 3 Zrotation Yrotation Xrotation
					JOINT lForeArm
					{
						OFFSET 10.139888 0.000000 0.000000 
						CHANNELS 3 Yrotation Zrotation Xrotation
						JOINT lHand
						{
							OFFSET 8.370511 0.000000 0.000000 
							CHANNELS 3 Zrotation Yrotation Xrotation
							End Site
							{
								OFFSET 4.083176 0.000000 0.000000 
							}
						}
					}
				}
			}
			JOINT rCollar
			{
				OFFSET -3.470700 6.669187 -0.816635 
				CHANNELS 3 Yrotation Zrotation Xrotation
				JOINT rShldr
				{
					OFFSET -3.198488 0.000000 0.000000 
					CHANNELS 3 Zrotation Yrotation Xrotation
					JOINT rForeArm
					{
						OFFSET -10.139888 0.000000 0.000000 
						CHANNELS 3 Yrotation Zrotation Xrotation
						JOINT rHand
						{
							OFFSET -8.370511 0.000000 0.000000 
							CHANNELS 3 Zrotation Yrotation Xrotation
							End Site
							{
								OFFSET -4.083176 0.000000 0.000000 
							}
						}
					}
				}
			}
		}
	}
	JOINT lThigh
	{
		OFFSET 5.308129 -1.633274 1.361059 
		CHANNELS 3 Xrotation Zrotation Yrotation
		JOINT lShin
		{
			OFFSET -2.041588 -20.007561 0.000000 
			CHANNELS 3 Xrotation Zrotation Yrotation
			JOINT lFoot
			{
				OFFSET 0.000000 -19.190928 -1.224953 
				CHANNELS 3 Xrotation Yrotation Zrotation
				End Site
				{
					OFFSET 0.000000 -2.449906 4.627600 
				}
			}
		}
	}
	JOINT rThigh
	{
		OFFSET -5.308129 -1.633274 1.361059 
		CHANNELS 3 Xrotation Zrotation Yrotation
		JOINT rShin
		{
			OFFSET 2.041588 -20.007561 0.000000 
			CHANNELS 3 Xrotation Zrotation Yrotation
			JOINT rFoot
			{
				OFFSET 0.000000 -19.190928 -1.224953 
				CHANNELS 3 Xrotation Yrotation Zrotation
				End Site
				{
					OFFSET 0.000000 -2.449906 4.627600 
				}
			}
		}
	}
}
MOTION
Frames: 16
Frame Time: 0.033333
0.246405 49.512764 1.491310 16.376955 -4.228516 -16.563221 54.797115 -21.264593 -22.467175 -16.171875 0.566406 -0.107325 51.063168 8.107644 2.471410 -97.734375 7.861328 -0.477180 2.000000 -2.000000 0.000000 -68.857422 31.728518 -48.061268 -127.325150 1.799528 -2.575483 7.355089 51.778168 18.200603 -2.000000 2.000000 0.000000 66.464844 -39.677738 1.790641 115.192749 -1.027515 -3.068030 -34.946220 -57.418407 48.671310 -50.069733 35.893578 -4.721814 23.375891 -4.785425 -2.399882 11.783698 -4.016719 -15.100896 -31.785770 -2.431401 -21.038076 42.381496 3.818056 3.339008 -8.441383 -8.131810 13.312140 
0.597846 50.087864 2.945287 18.339846 -5.195313 -15.801665 54.499016 -21.555096 -22.389120 -17.392578 0.927779 0.302864 51.063168 8.107644 2.471410 -95.781242 6.796875 -1.014470 2.000000 -2.000000 0.000000 -70.361328 34.912109 -43.935547 -127.682190 1.798843 -2.419296 7.929445 50.561672 17.531593 -2.000000 2.000000 0.000000 70.869141 -41.035156 1.663511 114.841202 -1.008016 -3.066903 -34.898632 -57.583084 49.573528 -51.084675 35.610119 -4.868257 23.539831 -4.843547 -2.259300 10.030565 -3.918770 -13.899281 -29.789675 -1.990023 -22.021780 37.980839 4.071596 2.886170 -7.780188 -6.801247 14.066229 
1.029957 50.655087 4.318957 20.488281 -6.113281 -14.941406 54.610954 -21.742067 -22.739697 -18.447266 1.123047 0.664254 51.063168 8.107644 2.471410 -93.837891 5.917968 -1.533203 2.000000 -2.000000 0.000000 -70.546875 37.978516 -39.378754 -128.033463 1.809159 -2.410119 7.889944 50.258614 16.535019 -2.000000 2.000000 0.000000 73.925781 -42.451172 1.845703 114.660339 -0.998438 -3.232406 -34.918552 -57.495712 50.519032 -52.394581 35.279049 -5.375849 23.551979 -4.785363 -2.219956 9.131414 -3.839586 -12.886066 -27.946058 -1.336389 -23.200108 33.576366 4.305908 2.443463 -5.700809 -5.049519 15.118745 
1.502163 51.175041 5.578903 22.509766 -7.333984 -14.317654 54.438263 -21.788290 -22.698462 -19.140625 1.318359 0.849609 51.063168 8.107644 2.471410 -92.441406 5.107422 -1.922959 2.000000 -2.000000 0.000000 -69.550781 40.937496 -35.078125 -128.021255 1.969681 -2.341253 8.138151 50.074997 16.342171 -2.000000 2.000000 0.000000 74.707031 -43.554688 2.317490 114.662140 -0.829322 -3.281321 -34.060112 -57.572887 50.220306 -53.184044 34.892849 -5.524001 23.558498 -4.767164 -2.421452 7.155332 -3.565969 -11.760251 -26.430933 -0.515809 -24.363947 29.539322 4.545874 1.942281 -3.279963 -3.881504 16.203421 
1.935237 51.671364 6.683321 24.355469 -8.339844 -13.634228 54.486065 -21.901968 -22.846889 -19.482424 1.308594 0.849609 51.063168 8.107644 2.471410 -91.562500 4.804687 -2.313635 2.000000 -2.000000 0.000000 -68.173836 41.708981 -32.685547 -128.021255 1.969681 -2.341253 8.251152 50.769318 16.480707 -2.000000 2.000000 0.000000 74.755859 -44.462891 3.293943 114.660896 -0.987563 -3.251335 -33.010441 -57.751797 49.388115 -53.668900 34.598183 -6.863383 22.332470 -4.843966 -2.129870 6.543863 -3.083940 -11.692333 -25.426657 0.245416 -25.375755 25.833385 4.706053 1.848447 0.571441 -2.505035 17.342632 
2.407513 52.112534 7.607776 26.015625 -9.189452 -12.941013 54.731384 -21.948175 -23.035345 -19.667969 1.318359 0.674050 51.063168 8.107644 2.471410 -91.210938 4.804687 -2.626953 2.000000 -2.000000 0.000000 -67.207031 41.904297 -31.738281 -127.857712 1.799410 -2.409550 8.455140 51.806255 17.164272 -2.000000 2.000000 0.000000 74.511719 -44.482418 3.206050 114.836395 -0.997876 -3.242151 -31.813795 -57.975731 48.306301 -53.978416 34.177021 -8.172217 21.784071 -4.931457 -2.090096 5.442771 -2.135687 -11.549975 -24.458872 0.861162 -25.981533 22.832855 4.832366 1.625376 4.733550 -1.392625 18.269918 
2.774107 52.522198 8.828433 27.480469 -9.853516 -12.499999 54.968224 -21.997616 -23.214628 -19.667969 1.318359 0.498270 51.063168 8.107644 2.471410 -91.035156 5.058594 -3.017578 2.000000 -2.000000 0.000000 -66.269531 41.494141 -31.240232 -127.503937 1.618384 -2.662732 8.883132 53.147976 18.186750 -2.000000 2.000000 0.000000 73.945313 -44.765625 3.567344 115.193024 -1.017202 -3.077212 -30.881584 -58.111599 47.217827 -53.593704 33.662109 -8.689282 20.728018 -4.901296 -1.987658 4.876177 -1.871074 -11.207786 -24.449781 1.016784 -25.675539 21.246962 4.784271 1.952521 10.633345 -0.573397 19.880733 
3.094111 52.884583 9.976722 28.261719 -10.253906 -12.179472 55.139217 -21.948315 -23.264990 -19.667969 1.142578 0.293164 51.063168 8.107644 2.471410 -91.015625 5.585938 -3.280300 2.000000 -2.000000 0.000000 -65.341797 40.966797 -31.210939 -127.328430 1.617819 -2.672477 9.476257 54.139900 19.234257 -2.000000 2.000000 0.000000 73.505859 -45.029297 3.577076 115.368805 -1.026951 -3.077776 -30.931950 -57.907772 47.136002 -52.958897 33.481903 -8.175227 20.356756 -4.902444 -1.937666 3.934722 -1.649182 -10.647507 -25.482580 0.129318 -23.966984 21.598499 4.852957 1.526364 18.597126 1.556731 21.985012 
3.408620 53.152447 11.115125 28.623047 -10.390625 -11.962891 55.321453 -21.896233 -23.290106 -19.667969 1.142578 0.293164 51.063168 8.107644 2.471410 -91.191406 5.859374 -3.358378 2.000000 -2.000000 0.000000 -64.667969 40.449219 -30.751953 -127.167480 1.490653 -2.841089 9.116144 54.859268 19.322689 -2.000000 2.000000 0.000000 72.617188 -45.615238 3.789063 115.892570 -0.878069 -3.284133 -30.894291 -57.525009 46.710819 -51.589970 33.065552 -7.378314 20.203114 -4.912043 -1.945712 3.070801 -1.760794 -10.305174 -27.428625 -1.687984 -23.453514 23.008440 4.754004 1.907425 30.837427 3.652272 22.397133 
3.720467 52.727028 12.213748 28.417971 -10.087891 -11.945069 55.015297 -21.639828 -23.102921 -19.677734 0.966797 0.088055 51.063168 8.107644 2.471410 -91.171875 5.996093 -3.465777 2.000000 -2.000000 0.000000 -63.964844 40.468746 -29.853514 -127.332085 1.843320 -2.832267 9.118868 55.396473 19.364653 -2.000000 2.000000 0.000000 71.308594 -46.416016 4.114020 116.247398 -1.056763 -3.069722 -30.983370 -57.371342 46.121319 -50.624210 32.499626 -6.245937 22.482328 -4.891652 -2.161076 0.795194 -1.431575 -9.858986 -29.593935 -3.649045 -23.364338 27.413452 4.559161 2.247627 31.992418 4.309504 23.369118 
3.951150 51.836803 13.392677 27.812500 -9.521484 -11.884767 54.669727 -21.337166 -22.727278 -19.677734 0.966797 0.088055 51.063168 8.107644 2.471410 -91.015625 5.849609 -3.348615 2.000000 -2.000000 0.000000 -63.183594 39.853519 -29.199215 -126.976631 1.598886 -2.661598 9.506655 55.556408 19.406734 -2.000000 2.000000 0.000000 70.302734 -47.324215 4.160155 116.599228 -1.065948 -3.080032 -31.320795 -57.088787 45.827873 -48.401165 31.822367 -4.429445 23.365965 -4.765760 -2.210703 -1.086476 -1.491242 -9.590323 -32.180901 -6.275022 -23.185169 33.228325 4.247520 2.680077 26.459595 2.962957 25.018902 
4.082477 50.733868 14.648212 26.855471 -8.798827 -12.003447 54.251255 -20.774855 -22.400246 -19.677734 0.966797 0.088055 51.063168 8.107644 2.471410 -90.654297 5.712891 -3.006840 2.000000 -2.000000 0.000000 -62.568359 39.443359 -28.499657 -126.984230 1.417892 -2.914842 9.888161 55.335529 19.662556 -2.000000 2.000000 0.000000 69.179688 -48.173828 4.179688 116.599228 -1.065948 -3.080032 -31.247030 -56.939640 45.495274 -45.609699 31.383350 -2.147405 24.428125 -4.755717 -2.461678 -3.765289 -1.573742 -9.112053 -34.977489 -8.728724 -23.250725 38.851788 3.921658 3.081767 18.010406 -0.014978 26.393209 
4.080868 50.647205 15.917865 25.732424 -7.939454 -12.100958 53.727814 -20.400570 -22.132446 -19.677734 0.966797 0.088055 51.063168 8.107644 2.471410 -90.478516 5.566406 -2.879912 2.000000 -2.000000 0.000000 -61.962891 39.238281 -27.757494 -126.453888 1.599025 -2.827837 9.416079 54.686275 18.944742 -2.000000 2.000000 0.000000 68.955078 -48.925777 3.847656 116.599495 -1.065384 -3.089777 -30.850224 -56.858356 45.049774 -42.409462 30.906347 0.198688 24.780458 -4.736562 -2.467416 -5.538332 -1.783891 -8.921236 -37.369057 -10.787916 -23.685329 42.896584 3.652120 3.493742 11.500721 -2.297820 26.532524 
3.841819 50.686592 17.306820 24.443359 -6.894531 -12.460936 53.156979 -19.877930 -21.786568 -19.853516 0.976563 0.068359 51.063168 8.107644 2.471410 -90.136719 5.292968 -2.626052 2.000000 -2.000000 0.000000 -61.718750 39.179691 -26.728516 -126.812737 1.448689 -2.721310 10.321454 54.626984 18.987600 -2.000000 2.000000 0.000000 69.228516 -49.453129 3.058985 116.244408 -0.877506 -3.293878 -30.176142 -56.670662 44.754356 -38.065609 30.712189 3.804563 23.184132 -4.876421 -2.236240 -6.358379 -2.927106 -8.218465 -39.784348 -12.519235 -24.113777 44.307537 3.680935 3.298053 6.121226 -3.662201 24.745579 
3.308027 50.639339 18.654005 22.783205 -5.859375 -12.676778 52.587749 -19.383408 -21.389532 -19.853516 0.976563 0.068359 51.063168 8.107644 2.471410 -89.960938 5.146483 -2.324219 2.000000 -2.000000 0.000000 -60.996098 39.082031 -25.771486 -126.453613 1.599590 -2.818091 11.532535 53.771236 19.419237 -2.000000 2.000000 0.000000 70.000000 -50.185547 2.041016 115.896416 -1.036137 -3.088085 -29.530193 -57.080940 44.264080 -33.518867 30.695518 8.566865 22.461180 -4.794242 -2.171162 -7.377023 -4.691601 -7.695345 -41.657326 -13.835473 -25.335623 43.962643 3.720462 3.265599 0.915444 -4.670479 21.394632 
2.578417 50.568424 20.119104 21.318363 -4.755859 -13.116043 51.982979 -18.734571 -20.905302 -19.853516 0.976563 0.068359 51.063168 8.107644 2.471410 -89.619141 4.863281 -1.903469 2.000000 -2.000000 0.000000 -60.732422 39.140625 -24.687500 -126.800835 1.608635 -2.662165 12.803678 53.396450 19.664652 -2.000000 2.000000 0.000000 71.191406 -50.429691 0.351563 115.720642 -1.026387 -3.087522 -28.762299 -57.292274 44.092442 -28.239189 30.366205 12.323709 21.066168 -4.866677 -2.029669 -8.967224 -6.107728 -7.719976 -42.301685 -13.913518 -26.396101 40.964695 3.814862 3.359648 -2.529010 -4.200798 17.242533 
